<?xml version="1.0" standalone="no"?>
<!DOCTYPE svg PUBLIC "-//W3C//DTD SVG 20010904//EN"
 "http://www.w3.org/TR/2001/REC-SVG-20010904/DTD/svg10.dtd">
<svg version="1.0" xmlns="http://www.w3.org/2000/svg"
 width="1785.000000pt" height="218.000000pt" viewBox="0 0 1785.000000 218.000000"
 preserveAspectRatio="xMidYMid meet">

<g transform="translate(0.000000,218.000000) scale(0.100000,-0.100000)"
fill="#000000" stroke="none">
<path d="M5650 2104 c-113 -14 -273 -51 -395 -91 -114 -38 -230 -92 -623 -289
-506 -254 -711 -347 -913 -414 -418 -137 -963 -176 -1429 -100 -201 33 -310
64 -770 215 -458 151 -622 198 -835 239 -145 27 -376 53 -562 63 l-123 6 0
-866 0 -867 8925 0 8925 0 0 1044 0 1045 -47 8 c-27 4 -138 8 -248 7 -178 0
-215 -3 -335 -28 -245 -50 -427 -125 -920 -381 -447 -231 -625 -311 -880 -393
-406 -131 -963 -167 -1409 -91 -196 33 -345 75 -748 209 -459 152 -585 190
-776 229 -183 38 -248 47 -533 71 -236 20 -236 20 -467 0 -497 -43 -613 -69
-1312 -300 -646 -213 -799 -243 -1235 -244 -479 -1 -808 63 -1211 235 -75 31
-347 163 -605 292 -489 246 -516 258 -679 313 -190 65 -314 85 -550 89 -115 2
-226 1 -245 -1z"/>
</g>
</svg>
